<svg viewBox="0 0 80 60" xmlns="http://www.w3.org/2000/svg">
  <path d="M 40.58 52.606 C 38.099 51.811 37.788 51.424 31.68 41.524 C 28.826 36.897 27.455 35.026 25.83 33.536 C 24.231 32.069 22.919 31.299 22.557 31.614 C 22.106 32.01 21.053 38.77 20.571 44.406 C 19.88 52.548 20.096 51.881 18.598 51.91 C 17.373 51.934 18.106 52.476 17.464 44.543 C 16.833 36.828 15.573 28.041 12.444 23.078 C 11.527 21.625 11.208 19.275 11.486 16.015 C 11.639 14.216 11.71 13.828 12.094 12.73 C 12.582 11.328 13.22 10 13.932 8.899 C 14.798 7.561 16.025 6.038 16.787 5.354 C 17.723 4.514 18.019 4.513 19.237 5.347 C 21.718 7.051 26.959 11.916 33.017 18.14 C 38.358 23.627 38.708 24.038 43.568 30.492 C 45.77 33.418 47.096 34.235 51.86 35.611 C 52.937 35.922 53.414 36.152 54.963 37.111 C 57.157 38.47 59.479 39.63 63.934 41.591 C 66.269 42.62 67.513 43.24 68.106 43.671 C 70.235 45.22 70.974 46.625 70.378 47.995 C 70.251 48.286 70.138 48.624 70.127 48.746 C 70.085 49.198 69.184 49.861 67.924 50.369 C 64.533 51.733 58.483 52.652 49.509 53.168 C 45.966 53.37 42.231 53.136 40.581 52.606 L 40.58 52.606 Z" style="stroke: rgb(0, 0, 0); fill: rgb(165, 38, 216); fill-opacity: 1;" id="path1385"></path>
</svg>